<svg width="286" height="27" viewBox="0 0 286 27" fill="none" xmlns="http://www.w3.org/2000/svg">
<path d="M9.81321 26.3729C14.5362 26.3729 17.718 24.0735 18.4638 20.5312L13.5668 20.2081C13.0323 21.6623 11.6651 22.4205 9.90021 22.4205C7.25284 22.4205 5.57493 20.668 5.57493 17.8217V17.8093H18.5756V16.3551C18.5756 9.86719 14.6481 6.66051 9.60192 6.66051C3.98402 6.66051 0.34233 10.6502 0.34233 16.5415C0.34233 22.5945 3.9343 26.3729 9.81321 26.3729ZM5.57493 14.5281C5.68679 12.353 7.33984 10.6129 9.68892 10.6129C11.9883 10.6129 13.5792 12.2536 13.5916 14.5281H5.57493ZM22.1303 26H27.3505V22.9425H27.5866C28.32 24.5334 29.9233 26.3107 33.0057 26.3107C37.3558 26.3107 40.7489 22.8679 40.7489 16.4794C40.7489 9.9169 37.2067 6.66051 33.0181 6.66051C29.8239 6.66051 28.2951 8.56214 27.5866 10.1158H27.4251V0.545454H22.1303V26ZM27.3132 16.4545C27.3132 13.049 28.755 10.8739 31.3278 10.8739C33.9503 10.8739 35.3423 13.1484 35.3423 16.4545C35.3423 19.7855 33.9254 22.0973 31.3278 22.0973C28.7798 22.0973 27.3132 19.8601 27.3132 16.4545ZM52.9076 26.3729C58.6995 26.3729 62.3039 22.408 62.3039 16.5291C62.3039 10.6129 58.6995 6.66051 52.9076 6.66051C47.1157 6.66051 43.5113 10.6129 43.5113 16.5291C43.5113 22.408 47.1157 26.3729 52.9076 26.3729ZM52.9324 22.2713C50.2602 22.2713 48.893 19.8228 48.893 16.4918C48.893 13.1609 50.2602 10.6999 52.9324 10.6999C55.555 10.6999 56.9221 13.1609 56.9221 16.4918C56.9221 19.8228 55.555 22.2713 52.9324 22.2713ZM74.3724 26.3729C80.1643 26.3729 83.7687 22.408 83.7687 16.5291C83.7687 10.6129 80.1643 6.66051 74.3724 6.66051C68.5805 6.66051 64.9761 10.6129 64.9761 16.5291C64.9761 22.408 68.5805 26.3729 74.3724 26.3729ZM74.3973 22.2713C71.7251 22.2713 70.3579 19.8228 70.3579 16.4918C70.3579 13.1609 71.7251 10.6999 74.3973 10.6999C77.0198 10.6999 78.387 13.1609 78.387 16.4918C78.387 19.8228 77.0198 22.2713 74.3973 22.2713ZM87.2116 26H92.5063V19.9347L93.9356 18.3065L99.1434 26H105.345L97.9005 15.1744L104.985 6.90909H98.9072L92.7922 14.1552H92.5063V0.545454H87.2116V26Z" fill="#067DF7"/>
<path d="M116.208 26.3729C121.292 26.3729 124.486 23.3899 124.735 19.0025H119.738C119.427 21.0408 118.085 22.1843 116.271 22.1843C113.797 22.1843 112.194 20.1087 112.194 16.4545C112.194 12.8501 113.81 10.7869 116.271 10.7869C118.209 10.7869 119.452 12.0671 119.738 13.9688H124.735C124.511 9.55646 121.168 6.66051 116.184 6.66051C110.392 6.66051 106.812 10.6751 106.812 16.5291C106.812 22.3335 110.329 26.3729 116.208 26.3729ZM136.75 26.3729C142.542 26.3729 146.147 22.408 146.147 16.5291C146.147 10.6129 142.542 6.66051 136.75 6.66051C130.958 6.66051 127.354 10.6129 127.354 16.5291C127.354 22.408 130.958 26.3729 136.75 26.3729ZM136.775 22.2713C134.103 22.2713 132.736 19.8228 132.736 16.4918C132.736 13.1609 134.103 10.6999 136.775 10.6999C139.398 10.6999 140.765 13.1609 140.765 16.4918C140.765 19.8228 139.398 22.2713 136.775 22.2713ZM149.589 26H154.884V14.5405C154.884 12.4276 156.227 11.0231 157.991 11.0231C159.732 11.0231 160.9 12.2163 160.9 14.093V26H166.033V14.3416C166.033 12.3654 167.164 11.0231 169.091 11.0231C170.781 11.0231 172.049 12.0795 172.049 14.2049V26H177.331V13.1609C177.331 9.02202 174.87 6.66051 171.315 6.66051C168.519 6.66051 166.344 8.08984 165.561 10.2773H165.362C164.753 8.06499 162.801 6.66051 160.179 6.66051C157.606 6.66051 155.655 8.0277 154.859 10.2773H154.636V6.90909H149.589V26ZM181.513 26H186.808V14.5405C186.808 12.4276 188.15 11.0231 189.915 11.0231C191.655 11.0231 192.824 12.2163 192.824 14.093V26H197.957V14.3416C197.957 12.3654 199.088 11.0231 201.014 11.0231C202.705 11.0231 203.972 12.0795 203.972 14.2049V26H209.255V13.1609C209.255 9.02202 206.794 6.66051 203.239 6.66051C200.443 6.66051 198.268 8.08984 197.485 10.2773H197.286C196.677 8.06499 194.725 6.66051 192.103 6.66051C189.53 6.66051 187.579 8.0277 186.783 10.2773H186.559V6.90909H181.513V26ZM222.137 26.3729C226.86 26.3729 230.042 24.0735 230.788 20.5312L225.891 20.2081C225.357 21.6623 223.989 22.4205 222.224 22.4205C219.577 22.4205 217.899 20.668 217.899 17.8217V17.8093H230.9V16.3551C230.9 9.86719 226.972 6.66051 221.926 6.66051C216.308 6.66051 212.667 10.6502 212.667 16.5415C212.667 22.5945 216.259 26.3729 222.137 26.3729ZM217.899 14.5281C218.011 12.353 219.664 10.6129 222.013 10.6129C224.312 10.6129 225.903 12.2536 225.916 14.5281H217.899ZM234.355 26H239.65V15.1992C239.65 12.8501 241.365 11.2344 243.702 11.2344C244.435 11.2344 245.442 11.3587 245.939 11.5202V6.82209C245.467 6.71023 244.808 6.63565 244.273 6.63565C242.136 6.63565 240.383 7.87855 239.687 10.2401H239.488V6.90909H234.355V26ZM256.413 26.3729C261.497 26.3729 264.691 23.3899 264.94 19.0025H259.943C259.633 21.0408 258.29 22.1843 256.476 22.1843C254.002 22.1843 252.399 20.1087 252.399 16.4545C252.399 12.8501 254.015 10.7869 256.476 10.7869C258.415 10.7869 259.657 12.0671 259.943 13.9688H264.94C264.716 9.55646 261.373 6.66051 256.389 6.66051C250.597 6.66051 247.017 10.6751 247.017 16.5291C247.017 22.3335 250.535 26.3729 256.413 26.3729ZM277.03 26.3729C281.753 26.3729 284.935 24.0735 285.681 20.5312L280.784 20.2081C280.249 21.6623 278.882 22.4205 277.117 22.4205C274.47 22.4205 272.792 20.668 272.792 17.8217V17.8093H285.792V16.3551C285.792 9.86719 281.865 6.66051 276.819 6.66051C271.201 6.66051 267.559 10.6502 267.559 16.5415C267.559 22.5945 271.151 26.3729 277.03 26.3729ZM272.792 14.5281C272.904 12.353 274.557 10.6129 276.906 10.6129C279.205 10.6129 280.796 12.2536 280.808 14.5281H272.792Z" fill="#4C5458"/>
</svg>
